<?xml version="1.0" encoding="UTF-8" standalone="no"?>
<!-- Created with Inkscape (http://www.inkscape.org/) -->

<svg
   width="158.75mm"
   height="158.75mm"
   viewBox="0 0 158.75 158.75"
   version="1.1"
   id="svg1"
   xml:space="preserve"
   xmlns:inkscape="http://www.inkscape.org/namespaces/inkscape"
   xmlns:sodipodi="http://sodipodi.sourceforge.net/DTD/sodipodi-0.dtd"
   xmlns="http://www.w3.org/2000/svg"
   xmlns:svg="http://www.w3.org/2000/svg"><sodipodi:namedview
     id="namedview1"
     pagecolor="#ffffff"
     bordercolor="#000000"
     borderopacity="0.25"
     inkscape:showpageshadow="2"
     inkscape:pageopacity="0.0"
     inkscape:pagecheckerboard="0"
     inkscape:deskcolor="#d1d1d1"
     inkscape:document-units="mm" /><defs
     id="defs1" /><g
     inkscape:label="Layer 1"
     inkscape:groupmode="layer"
     id="layer1"
     transform="translate(-25.47002,-69.125002)"><path
       d="m 157.76169,69.125002 c 14.61253,0 26.45833,11.845799 26.45833,26.458334 V 201.41667 c 0,14.61253 -11.8458,26.45833 -26.45833,26.45833 H 51.928354 c -14.612535,0 -26.458334,-11.8458 -26.458334,-26.45833 V 95.583336 c 0,-14.612535 11.845799,-26.458334 26.458334,-26.458334 z m -13.49666,43.829728 -57.058899,57.0589 -21.781116,-21.78112 c -2.583155,-2.58315 -6.771278,-2.58315 -9.354434,0 -2.583155,2.58315 -2.583155,6.77128 0,9.35443 l 26.458334,26.45833 c 2.583155,2.58316 6.771279,2.58316 9.354432,0 l 61.736113,-61.73611 c 2.58316,-2.58315 2.58316,-6.77128 0,-9.35443 -2.58315,-2.58316 -6.77128,-2.58316 -9.35443,0 z"
       id="🎨-Color"
       style="fill:#212121;fill-rule:nonzero;stroke:none;stroke-width:8.81944" /></g></svg>
