<?xml version="1.0" encoding="UTF-8" standalone="no"?>
<!-- Created with Inkscape (http://www.inkscape.org/) -->

<svg
   width="158.75mm"
   height="158.75mm"
   viewBox="0 0 158.75 158.75"
   version="1.1"
   id="svg1"
   xml:space="preserve"
   xmlns:inkscape="http://www.inkscape.org/namespaces/inkscape"
   xmlns:sodipodi="http://sodipodi.sourceforge.net/DTD/sodipodi-0.dtd"
   xmlns="http://www.w3.org/2000/svg"
   xmlns:svg="http://www.w3.org/2000/svg"><sodipodi:namedview
     id="namedview1"
     pagecolor="#ffffff"
     bordercolor="#000000"
     borderopacity="0.25"
     inkscape:showpageshadow="2"
     inkscape:pageopacity="0.0"
     inkscape:pagecheckerboard="0"
     inkscape:deskcolor="#d1d1d1"
     inkscape:document-units="mm" /><defs
     id="defs1" /><g
     inkscape:label="Layer 1"
     inkscape:groupmode="layer"
     id="layer1"
     transform="translate(-25.47002,-69.125002)"><path
       d="m 159.96655,69.125002 c 13.39482,0 24.25347,10.858649 24.25347,24.253473 V 203.62153 c 0,13.39482 -10.85865,24.25347 -24.25347,24.25347 H 49.723493 c -13.394824,0 -24.253473,-10.85865 -24.253473,-24.25347 V 93.378475 c 0,-13.394824 10.858649,-24.253473 24.253473,-24.253473 z m 0,13.229167 H 49.723493 c -6.088556,0 -11.024306,4.93575 -11.024306,11.024306 V 203.62153 c 0,6.08856 4.93575,11.02431 11.024306,11.02431 H 159.96655 c 6.08856,0 11.02431,-4.93575 11.02431,-11.02431 V 93.378475 c 0,-6.088556 -4.93575,-11.024306 -11.02431,-11.024306 z m -72.760419,87.659461 57.058899,-57.0589 c 2.58315,-2.58316 6.77128,-2.58316 9.35443,0 2.34833,2.34832 2.56181,6.02307 0.64047,8.61256 l -0.64047,0.74187 -61.736113,61.73611 c -2.348318,2.34833 -6.023065,2.56182 -8.612554,0.64047 L 82.52891,184.04527 56.070577,157.58694 c -2.583155,-2.58315 -2.583155,-6.77128 0,-9.35443 2.348323,-2.34833 6.023066,-2.56181 8.612556,-0.64047 l 0.741882,0.64047 21.781116,21.78112 57.058899,-57.0589 z"
       id="🎨Color"
       style="fill:#212121;fill-rule:nonzero;stroke:none;stroke-width:8.81944"
       inkscape:export-filename="🎨Color.svg"
       inkscape:export-xdpi="90.05455"
       inkscape:export-ydpi="90.05455" /></g></svg>
