<?xml version="1.0" encoding="UTF-8" standalone="no"?>
<!-- Created with Inkscape (http://www.inkscape.org/) -->

<svg
   width="158.75mm"
   height="158.75mm"
   viewBox="0 0 158.75 158.75"
   version="1.1"
   id="svg1"
   xml:space="preserve"
   xmlns:inkscape="http://www.inkscape.org/namespaces/inkscape"
   xmlns:sodipodi="http://sodipodi.sourceforge.net/DTD/sodipodi-0.dtd"
   xmlns="http://www.w3.org/2000/svg"
   xmlns:svg="http://www.w3.org/2000/svg"><sodipodi:namedview
     id="namedview1"
     pagecolor="#ffffff"
     bordercolor="#000000"
     borderopacity="0.25"
     inkscape:showpageshadow="2"
     inkscape:pageopacity="0.0"
     inkscape:pagecheckerboard="0"
     inkscape:deskcolor="#d1d1d1"
     inkscape:document-units="mm" /><defs
     id="defs1" /><g
     inkscape:label="Layer 1"
     inkscape:groupmode="layer"
     id="layer1"
     transform="translate(-25.47002,-69.125002)"><path
       d="M 51.928354,69.125002 H 157.76169 c 14.61253,0 26.45833,11.845799 26.45833,26.458334 V 201.41667 c 0,14.61253 -11.8458,26.45833 -26.45833,26.45833 H 51.928354 c -14.612535,0 -26.458334,-11.8458 -26.458334,-26.45833 V 95.583336 c 0,-14.612535 11.845799,-26.458334 26.458334,-26.458334 z m 0,17.638889 c -4.870845,0 -8.819445,3.9486 -8.819445,8.819445 V 201.41667 c 0,4.87085 3.9486,8.81944 8.819445,8.81944 H 157.76169 c 4.87085,0 8.81944,-3.94859 8.81944,-8.81944 V 95.583336 c 0,-4.870845 -3.94859,-8.819445 -8.81944,-8.819445 z"
       id="🎨Color"
       style="fill:#212121;fill-rule:nonzero;stroke:none;stroke-width:8.81944" /></g></svg>
